<svg width="1440" height="147" viewBox="0 0 100% 147" fill="none" xmlns="http://www.w3.org/2000/svg">
<path fill-rule="evenodd" clip-rule="evenodd" d="M976 0.5H1161H1161.21L1161.35 0.646447L1208.21 47.5H1342H1342.21L1342.35 47.6464L1370.21 75.5H1440V76.5H693.333H467.653L421.854 107.414L421.727 107.5H421.574H257.926H257.773L257.646 107.414L211.847 76.5H0V75.5H212H212.153L212.28 75.5856L258.079 106.5H421.421L467.22 75.5856L467.347 75.5H467.5H693.333H1368.79L1341.79 48.5H1208H1207.79L1207.65 48.3536L1160.79 1.5H976V0.5ZM347.66 146.367L306.66 108.367L307.34 107.633L348.196 145.5H431V146.5H348H347.804L347.66 146.367Z" fill="white"/>
</svg>
